<svg width="27" height="27" viewBox="0 0 27 27" fill="none" xmlns="http://www.w3.org/2000/svg">
<path d="M24.0549 26.0811L14.9256 16.9518C14.2011 17.5314 13.3679 17.9903 12.426 18.3284C11.4841 18.6666 10.4818 18.8356 9.4191 18.8356C6.78658 18.8356 4.55884 17.9237 2.73588 16.0997C0.912928 14.2758 0.000966061 12.0481 0 9.41653C0 6.78402 0.911962 4.55628 2.73588 2.73332C4.55981 0.910364 6.78754 -0.00159742 9.4191 -0.00256348C12.0516 -0.00256348 14.2793 0.909398 16.1023 2.73332C17.9253 4.55724 18.8372 6.78498 18.8382 9.41653C18.8382 10.4792 18.6691 11.4815 18.331 12.4234C17.9929 13.3653 17.534 14.1985 16.9544 14.9231L26.0836 24.0524L24.0549 26.0811ZM9.4191 15.9374C11.2305 15.9374 12.7704 15.3032 14.0388 14.0348C15.3072 12.7663 15.941 11.2269 15.94 9.41653C15.94 7.60517 15.3058 6.06527 14.0374 4.79683C12.7689 3.52839 11.2295 2.89465 9.4191 2.89562C7.60773 2.89562 6.06783 3.52984 4.79939 4.79828C3.53095 6.06672 2.89722 7.60613 2.89818 9.41653C2.89818 11.2279 3.5324 12.7678 4.80084 14.0362C6.06928 15.3047 7.6087 15.9384 9.4191 15.9374Z" fill="#F4F4F4"/>
</svg>
